HIERARCHY
ROOT Hips
{
  OFFSET 0 90 0
  CHANNELS 6 Xposition Yposition Zposition Zrotation Xrotation Yrotation
  JOINT Spine
  {
    OFFSET 0 10 0
    CHANNELS 3 Zrotation Xrotation Yrotation
    JOINT Neck
    {
      OFFSET 0 30 0
      CHANNELS 3 Zrotation Xrotation Yrotation
      JOINT Head
      {
        OFFSET 0 8 0
        CHANNELS 3 Zrotation Xrotation Yrotation
        End Site
        {
          OFFSET 0 10 0
        }
      }
      JOINT LeftArm
      {
        OFFSET 15 0 0
        CHANNELS 3 Zrotation Xrotation Yrotation
        JOINT LeftForeArm
        {
          OFFSET 25 0 0
          CHANNELS 3 Zrotation Xrotation Yrotation
          JOINT LeftHand
          {
            OFFSET 25 0 0
            CHANNELS 3 Zrotation Xrotation Yrotation
            End Site
            {
              OFFSET 10 0 0
            }
          }
        }
      }
      JOINT RightArm
      {
        OFFSET -15 0 0
        CHANNELS 3 Zrotation Xrotation Yrotation
        JOINT RightForeArm
        {
          OFFSET -25 0 0
          CHANNELS 3 Zrotation Xrotation Yrotation
          JOINT RightHand
          {
            OFFSET -25 0 0
            CHANNELS 3 Zrotation Xrotation Yrotation
            End Site
            {
              OFFSET -15 0 0
            }
          }
        }
      }
    }
  }
  JOINT LeftUpLeg
  {
    OFFSET 10 -10 0
    CHANNELS 3 Zrotation Xrotation Yrotation
    JOINT LeftLeg
    {
      OFFSET 0 -35 0
      CHANNELS 3 Zrotation Xrotation Yrotation
      JOINT LeftFoot
      {
        OFFSET 0 -40 0
        CHANNELS 3 Zrotation Xrotation Yrotation
        End Site
        {
          OFFSET 0 0 15
        }
      }
    }
  }
  JOINT RightUpLeg
  {
    OFFSET -10 -10 0
    CHANNELS 3 Zrotation Xrotation Yrotation
    JOINT RightLeg
    {
      OFFSET 0 -35 0
      CHANNELS 3 Zrotation Xrotation Yrotation
      JOINT RightFoot
      {
        OFFSET 0 -40 0
        CHANNELS 3 Zrotation Xrotation Yrotation
        End Site
        {
          OFFSET 0 0 15
        }
      }
    }
  }
}
MOTION
Frames:	13
Frame Time:	0.0333333
34.0128 87.8335 -5.16827 5.45489 -4.05017 -47.9582 -5.27091 10.9448 -1.19203 -9.82027 -19.5849 -5.33015 11.8661 26.6108 -7.2494 -81.2391 27.9058 15.8122 17.081 -5.34166 -28.0656 -0.642706 5.8232 -2.23269 104.513 19.237 -17.5827 -17.724 -5.10664 29.9048 0.224731 7.15822 -0.114008 -10.5748 13.4507 2.85695 -0.24497 0.0687016 -1.95954 0.345807 -19.0378 -8.95281 -9.88168 -32.3512 -6.00878 0.0215876 35.208 -0.294251 2.33325 -16.718 -8.05857 
31.3282 87.4053 -2.96781 6.07909 -4.06101 -47.4076 -5.80458 9.96516 -1.89028 -9.69889 -19.0146 -5.54431 12.2115 26.4129 -7.30519 -80.985 28.4389 15.822 17.0296 -5.32339 -28.0138 -0.660497 6.57427 -2.15777 104.851 18.3572 -17.9849 -17.4906 -4.95751 29.454 0.22126 7.63451 -0.117369 -10.7319 15.52 1.92875 -0.402543 0.0594116 -2.13775 0.562775 -20.261 -8.68265 -9.83208 -31.7716 -4.52914 -0.00436066 23.8461 -0.134816 1.89468 -17.7176 -9.36021 
28.6932 87.0875 -0.852217 6.8339 -4.10885 -46.7109 -6.54245 8.95853 -2.539 -9.33597 -18.9121 -5.77262 12.2342 26.583 -7.41528 -81.1514 28.5923 16.1298 16.9209 -5.25266 -27.816 -0.615904 7.23175 -2.14587 105.126 17.4055 -18.826 -17.1077 -4.70909 28.6859 0.219145 7.99324 -0.118964 -10.9528 17.3972 0.763715 -0.452285 0.0467281 -2.19974 0.640667 -21.0984 -8.49476 -9.78705 -31.9052 0.107659 0.0147793 17.4682 -0.104577 0.628067 -20.6314 -12.6873 
26.3915 86.883 1.02437 7.18595 -4.13618 -46.9706 -6.85915 8.8409 -2.26502 -9.22865 -19.4771 -5.91422 12.1192 26.5481 -7.68068 -81.4634 28.9954 16.4036 16.7453 -5.12054 -27.4492 -0.651965 7.40637 -2.14753 105.164 15.7025 -19.4258 -16.5195 -4.34326 27.5183 0.205784 8.76792 -0.130585 -10.9541 19.1934 0.542943 -0.416109 0.0486393 -2.22806 0.492182 -20.9863 -9.1534 -10.1016 -32.9403 -4.76543 -0.00580891 18.2689 -0.100223 1.84982 -18.3779 -8.5259 
23.9827 86.6935 2.9843 6.6503 -4.57525 -47.2465 -6.74809 9.45595 -2.28138 -8.92945 -20.233 -5.76756 11.505 26.9856 -7.26594 -82.3345 27.64 17.0515 16.4574 -4.88414 -26.812 -0.682645 8.25455 -2.16354 105.181 14.8265 -20.4387 -15.852 -3.93839 26.1652 0.232639 8.01027 -0.12938 -10.6832 22.1366 0.462359 -0.35944 -0.000130349 -2.27448 0.398758 -20.176 -9.78051 -9.29761 -32.3207 -5.57352 -0.00856813 21.0955 -0.11781 2.21914 -17.7749 -6.85181 
21.162 86.9209 5.10308 6.17249 -4.4424 -46.1287 -6.40034 9.0441 -3.27214 -8.67753 -19.6669 -5.94141 11.4139 26.7812 -7.06325 -82.9118 25.9107 17.5406 16.1448 -4.64665 -26.1701 -0.727097 7.42264 -2.20122 104.381 11.29 -19.9939 -14.6108 -3.25338 23.7566 0.251868 10.9503 -0.137799 -9.16399 24.6336 -1.34492 -0.331039 0.0686252 -2.33039 0.437307 -16.9892 -10.8945 -8.37741 -30.5039 -3.40666 -0.061846 22.2995 0.044395 3.29405 -15.0801 -2.33956 
18.2418 87.6606 7.37023 4.93131 -2.54194 -45.3976 -3.71696 7.74215 -3.66572 -8.92022 -19.7074 -5.99981 11.1839 27.9878 -7.34851 -83.8942 23.7904 18.1697 15.3624 -4.09385 -24.5441 -0.702873 8.98839 -2.202 103.599 7.42559 -20.7903 -13.7419 -2.8293 22.1494 0.231363 12.6349 -0.176471 -5.62406 26.1805 -3.04448 -0.329112 -3.77705e-005 -2.37353 0.925608 -11.1978 -12.0695 -5.38498 -28.5748 -1.67174 -0.114187 21.6669 0.284679 3.67247 -9.66354 -1.01396 
15.3323 88.1196 9.60692 3.58076 -1.96166 -46.1117 -2.18805 7.67704 -2.7817 -8.93775 -19.6993 -5.76347 10.9992 28.1908 -7.61303 -84.661 21.9307 18.4589 14.7111 -3.66317 -23.1939 -0.607417 8.94225 -2.28222 102.901 4.62891 -21.6301 -13.2025 -2.57865 21.1482 0.220397 13.8548 -0.178276 -4.03771 26.8684 -2.9339 0.069856 2.79234 -2.2992 1.22131 -3.05043 -13.1255 -3.36616 -26.2176 -2.2156 -0.152372 23.025 0.30035 3.66221 -10.2574 -0.957714 
12.3988 88.7787 11.8453 2.36814 -1.66506 -46.866 -1.08179 8.01424 -2.02681 -9.08393 -20.2938 -5.56761 11.2645 28.7815 -7.73884 -86.0101 21.3459 20.3025 14.4998 -3.53982 -22.7966 -0.548409 10.2805 -2.28217 102.597 3.27401 -22.6834 -12.6521 -2.34275 20.1405 0.202787 14.8136 -0.17836 -2.84767 17.3981 -2.65395 0.326646 22.543 -2.24919 2.78731 1.49712 -13.9932 -1.68698 -22.8788 -2.09906 -0.217625 22.8869 0.410789 3.95599 -10.6728 1.62828 
9.55738 89.3783 14.0295 1.05902 -0.656682 -46.839 0.693035 8.06702 -1.86023 -9.14871 -20.368 -5.43645 11.2219 28.4458 -7.64293 -87.5897 23.6162 21.9778 14.3889 -3.51571 -22.6592 -0.577537 10.1076 -2.23739 102.574 4.15733 -23.2146 -12.469 -2.27887 19.8401 0.177619 15.2168 -0.198902 -0.799749 9.62253 -2.72317 0.880348 36.6385 -2.37898 4.79922 5.96058 -19.082 0.63322 -18.7061 -1.99364 -0.289012 20.5873 0.533555 4.02937 -10.0955 1.93813 
6.90334 89.8764 16 -0.130859 -0.219908 -47.1572 1.7256 8.96754 -0.948726 -9.457 -20.7111 -5.51245 11.8654 28.093 -8.32514 -88.633 25.6965 23.1433 14.5556 -3.65226 -23.0564 -0.629539 10.0033 -2.20286 103.323 6.41462 -23.6598 -12.7583 -2.40176 20.3535 0.191462 14.7145 -0.18934 0.831014 3.57409 -2.04918 1.38759 47.2936 -2.59096 5.32167 6.22904 -21.0284 2.37109 -14.4884 -2.15773 -0.355518 18.4971 0.620182 4.13774 -10.186 2.42347 
4.38341 90.1869 17.9929 -0.870689 0.432642 -47.7579 2.78428 9.20018 0.0403248 -10.2951 -20.3551 -5.55149 12.8991 27.3814 -8.81126 -88.4324 26.435 23.0001 14.6973 -3.74936 -23.3237 -0.616894 9.83051 -2.19933 103.862 7.83427 -22.7174 -12.8565 -2.4445 20.5302 0.188196 14.9964 -0.158385 2.28081 -2.0851 -0.683381 1.67798 55.1176 -2.66616 2.7403 -2.35679 -19.458 3.90733 -10.6234 -1.47224 -0.411339 15.9161 0.674907 4.24954 -10.6572 2.71955 
1.89266 90.3919 20.0192 -1.48317 0.607633 -47.9789 3.44346 9.54618 0.58267 -10.4042 -20.0272 -5.23375 12.4524 27.1328 -8.73814 -88.4157 25.2302 22.4897 14.9597 -3.89554 -23.7959 -0.559351 9.70837 -2.23386 103.504 9.02052 -21.6863 -13.0996 -2.55398 20.9996 0.191922 14.4657 -0.187416 3.36379 -7.2933 0.526844 1.84378 60.2938 -2.60392 1.33778 -8.02222 -15.8867 4.75819 -6.85911 -1.55937 -0.457104 13.9659 0.676195 4.38077 -11.8617 3.05568 
